<?xml version="1.0" encoding="utf-8" standalone="no"?>
<!DOCTYPE svg PUBLIC "-//W3C//DTD SVG 1.1//EN"
  "http://www.w3.org/Graphics/SVG/1.1/DTD/svg11.dtd">
<svg xmlns:xlink="http://www.w3.org/1999/xlink" width="510pt" height="302pt" viewBox="0 0 510 302" xmlns="http://www.w3.org/2000/svg" version="1.1">
 <metadata>
  <rdf:RDF xmlns:dc="http://purl.org/dc/elements/1.1/" xmlns:cc="http://creativecommons.org/ns#" xmlns:rdf="http://www.w3.org/1999/02/22-rdf-syntax-ns#">
   <cc:Work>
    <dc:type rdf:resource="http://purl.org/dc/dcmitype/StillImage"/>
    <dc:date>2026-09-14T21:32:54.342659</dc:date>
    <dc:format>image/svg+xml</dc:format>
    <dc:creator>
     <cc:Agent>
      <dc:title>Matplotlib v3.11.1, https://matplotlib.org/</dc:title>
     </cc:Agent>
    </dc:creator>
   </cc:Work>
  </rdf:RDF>
 </metadata>
 <defs>
  <style type="text/css">*{stroke-linejoin: round; stroke-linecap: butt}</style>
 </defs>
 <g id="figure_1">
  <g id="patch_1">
   <path d="M 0 302 
L 510 302 
L 510 0 
L 0 0 
z
" style="fill: #ffffff"/>
  </g>
  <g id="patch_2">
   <path d="M 5 262 
L 167 262 
L 167 39 
L 5 39 
z
" style="fill: #ffffff; stroke: #d0cec8; stroke-width: 0.45; stroke-linejoin: miter"/>
  </g>
  <g id="patch_3">
   <path d="M 174 262 
L 336 262 
L 336 39 
L 174 39 
z
" style="fill: #ffffff; stroke: #d0cec8; stroke-width: 0.45; stroke-linejoin: miter"/>
  </g>
  <g id="patch_4">
   <path d="M 343 262 
L 505 262 
L 505 39 
L 343 39 
z
" style="fill: #ffffff; stroke: #d0cec8; stroke-width: 0.45; stroke-linejoin: miter"/>
  </g>
  <g id="patch_5">
   <path d="M 5.3 64 
L 166.7 64 
L 166.7 39.3 
L 5.3 39.3 
z
" style="fill: #f6f4f0"/>
  </g>
  <g id="patch_6">
   <path d="M 174.3 64 
L 335.7 64 
L 335.7 39.3 
L 174.3 39.3 
z
" style="fill: #f6f4f0"/>
  </g>
  <g id="patch_7">
   <path d="M 343.3 64 
L 504.7 64 
L 504.7 39.3 
L 343.3 39.3 
z
" style="fill: #f6f4f0"/>
  </g>
  <g id="line2d_1">
   <path d="M 5 64 
L 167 64 
" style="fill: none; stroke: #d0cec8; stroke-width: 0.5; stroke-linecap: square"/>
  </g>
  <g id="line2d_2">
   <path d="M 174 64 
L 336 64 
" style="fill: none; stroke: #d0cec8; stroke-width: 0.5; stroke-linecap: square"/>
  </g>
  <g id="line2d_3">
   <path d="M 343 64 
L 505 64 
" style="fill: none; stroke: #d0cec8; stroke-width: 0.5; stroke-linecap: square"/>
  </g>
  <g id="a">
   <g id="patch_8">
    <path d="M 33 196 
L 160 196 
L 160 81 
L 33 81 
z
" style="fill: #ffffff"/>
   </g>
   <g id="patch_9">
    <path d="M 33 196 
L 160 196 
L 160 161.5 
L 33 161.5 
z
" clip-path="url(#pc46b74f2dc)" style="fill: #f1f4f0; stroke: #f1f4f0; stroke-linejoin: miter"/>
   </g>
   <g id="matplotlib.axis_1">
    <g id="xtick_1">
     <g id="line2d_4"/>
     <g id="text_1">
      <text style="font-size: 7px; font-family: 'Times New Roman'; text-anchor: middle; fill: #657078" x="33" y="203.853516" transform="rotate(-0 33 203.853516)">0</text>
     </g>
    </g>
    <g id="xtick_2">
     <g id="line2d_5"/>
     <g id="text_2">
      <text style="font-size: 7px; font-family: 'Times New Roman'; text-anchor: middle; fill: #657078" x="73.31746" y="203.853516" transform="rotate(-0 73.31746 203.853516)">100</text>
     </g>
    </g>
    <g id="xtick_3">
     <g id="line2d_6"/>
     <g id="text_3">
      <text style="font-size: 7px; font-family: 'Times New Roman'; text-anchor: middle; fill: #657078" x="113.634921" y="203.853516" transform="rotate(-0 113.634921 203.853516)">200</text>
     </g>
    </g>
    <g id="xtick_4">
     <g id="line2d_7"/>
     <g id="text_4">
      <text style="font-size: 7px; font-family: 'Times New Roman'; text-anchor: middle; fill: #657078" x="153.952381" y="203.853516" transform="rotate(-0 153.952381 203.853516)">300</text>
     </g>
    </g>
    <g id="text_5">
     <text style="font-size: 8px; font-family: 'Times New Roman'; text-anchor: middle; fill: #293038" x="96.5" y="215.919258" transform="rotate(-0 96.5 215.919258)">Interval (s)</text>
    </g>
   </g>
   <g id="matplotlib.axis_2">
    <g id="ytick_1">
     <g id="line2d_8">
      <path d="M 33 196 
L 160 196 
" clip-path="url(#pc46b74f2dc)" style="fill: none; stroke: #e5e2dc; stroke-width: 0.4; stroke-linecap: square"/>
     </g>
     <g id="line2d_9"/>
     <g id="text_6">
      <text style="font-size: 7px; font-family: 'Times New Roman'; text-anchor: end; fill: #657078" x="30" y="198.426758" transform="rotate(-0 30 198.426758)">0</text>
     </g>
    </g>
    <g id="ytick_2">
     <g id="line2d_10">
      <path d="M 33 161.5 
L 160 161.5 
" clip-path="url(#pc46b74f2dc)" style="fill: none; stroke: #e5e2dc; stroke-width: 0.4; stroke-linecap: square"/>
     </g>
     <g id="line2d_11"/>
     <g id="text_7">
      <text style="font-size: 7px; font-family: 'Times New Roman'; text-anchor: end; fill: #657078" x="30" y="163.926758" transform="rotate(-0 30 163.926758)">180</text>
     </g>
    </g>
    <g id="ytick_3">
     <g id="line2d_12">
      <path d="M 33 138.5 
L 160 138.5 
" clip-path="url(#pc46b74f2dc)" style="fill: none; stroke: #e5e2dc; stroke-width: 0.4; stroke-linecap: square"/>
     </g>
     <g id="line2d_13"/>
     <g id="text_8">
      <text style="font-size: 7px; font-family: 'Times New Roman'; text-anchor: end; fill: #657078" x="30" y="140.926758" transform="rotate(-0 30 140.926758)">300</text>
     </g>
    </g>
    <g id="ytick_4">
     <g id="line2d_14">
      <path d="M 33 109.75 
L 160 109.75 
" clip-path="url(#pc46b74f2dc)" style="fill: none; stroke: #e5e2dc; stroke-width: 0.4; stroke-linecap: square"/>
     </g>
     <g id="line2d_15"/>
     <g id="text_9">
      <text style="font-size: 7px; font-family: 'Times New Roman'; text-anchor: end; fill: #657078" x="30" y="112.176758" transform="rotate(-0 30 112.176758)">450</text>
     </g>
    </g>
    <g id="ytick_5">
     <g id="line2d_16">
      <path d="M 33 81 
L 160 81 
" clip-path="url(#pc46b74f2dc)" style="fill: none; stroke: #e5e2dc; stroke-width: 0.4; stroke-linecap: square"/>
     </g>
     <g id="line2d_17"/>
     <g id="text_10">
      <text style="font-size: 7px; font-family: 'Times New Roman'; text-anchor: end; fill: #657078" x="30" y="83.426758" transform="rotate(-0 30 83.426758)">600</text>
     </g>
    </g>
   </g>
   <g id="line2d_18">
    <path d="M 33 196 
L 160 196 
" clip-path="url(#pc46b74f2dc)" style="fill: none; stroke: #d0cec8; stroke-width: 0.6; stroke-linecap: square"/>
   </g>
   <g id="line2d_19">
    <path d="M 33 161.5 
L 160 161.5 
" clip-path="url(#pc46b74f2dc)" style="fill: none; stroke-dasharray: 2.25,1.5; stroke-dashoffset: 0; stroke: #ad6b6f; stroke-width: 0.75"/>
   </g>
   <g id="line2d_20">
    <path d="M 37.031746 159.2 
L 45.095238 155.366667 
L 57.190476 147.508333 
L 81.380952 147.508333 
L 153.952381 103.616667 
" clip-path="url(#pc46b74f2dc)" style="fill: none; stroke: #858b8d; stroke-linecap: square"/>
    <defs>
     <path id="me86497a306" d="M -1.9 1.9 
L 1.9 1.9 
L 1.9 -1.9 
L -1.9 -1.9 
z
" style="stroke: #858b8d; stroke-width: 0.8; stroke-linejoin: miter"/>
    </defs>
    <g clip-path="url(#pc46b74f2dc)">
     <use xlink:href="#me86497a306" x="37.031746" y="159.2" style="fill: #858b8d; stroke: #858b8d; stroke-width: 0.8; stroke-linejoin: miter"/>
     <use xlink:href="#me86497a306" x="45.095238" y="155.366667" style="fill: #858b8d; stroke: #858b8d; stroke-width: 0.8; stroke-linejoin: miter"/>
     <use xlink:href="#me86497a306" x="57.190476" y="147.508333" style="fill: #858b8d; stroke: #858b8d; stroke-width: 0.8; stroke-linejoin: miter"/>
     <use xlink:href="#me86497a306" x="81.380952" y="147.508333" style="fill: #858b8d; stroke: #858b8d; stroke-width: 0.8; stroke-linejoin: miter"/>
     <use xlink:href="#me86497a306" x="153.952381" y="103.616667" style="fill: #858b8d; stroke: #858b8d; stroke-width: 0.8; stroke-linejoin: miter"/>
    </g>
   </g>
   <g id="patch_10">
    <path d="M 91.647498 173.437562 
Q 75.363274 167.795927 59.079051 162.154293 
" style="fill: none; stroke: #658571; stroke-width: 0.5; stroke-linecap: round"/>
   </g>
   <g id="text_11">
    <text style="font-size: 6.6px; font-family: 'Times New Roman'; text-anchor: start; fill: #658571" x="89.444444" y="180.666667" transform="rotate(-0 89.444444 180.666667)">OBS60: 180 s</text>
   </g>
   <g id="line2d_21">
    <path d="M 37.031746 169.166667 
L 45.095238 167.25 
L 57.190476 161.5 
L 81.380952 150 
L 153.952381 96.141667 
" clip-path="url(#pc46b74f2dc)" style="fill: none; stroke: #ba8d58; stroke-linecap: square"/>
    <defs>
     <path id="m6f599b2ea3" d="M 0 -3.4 
L -3.4 3.4 
L 3.4 3.4 
z
" style="stroke: #ba8d58; stroke-width: 0.8; stroke-linejoin: miter"/>
    </defs>
    <g clip-path="url(#pc46b74f2dc)">
     <use xlink:href="#m6f599b2ea3" x="37.031746" y="169.166667" style="fill: #ffffff; stroke: #ba8d58; stroke-width: 0.8; stroke-linejoin: miter"/>
     <use xlink:href="#m6f599b2ea3" x="45.095238" y="167.25" style="fill: #ffffff; stroke: #ba8d58; stroke-width: 0.8; stroke-linejoin: miter"/>
     <use xlink:href="#m6f599b2ea3" x="57.190476" y="161.5" style="fill: #ffffff; stroke: #ba8d58; stroke-width: 0.8; stroke-linejoin: miter"/>
     <use xlink:href="#m6f599b2ea3" x="81.380952" y="150" style="fill: #ffffff; stroke: #ba8d58; stroke-width: 0.8; stroke-linejoin: miter"/>
     <use xlink:href="#m6f599b2ea3" x="153.952381" y="96.141667" style="fill: #ffffff; stroke: #ba8d58; stroke-width: 0.8; stroke-linejoin: miter"/>
    </g>
   </g>
   <g id="line2d_22">
    <path d="M 37.031746 169.166667 
L 45.095238 167.25 
L 57.190476 161.5 
L 81.380952 150 
L 153.952381 103.616667 
" clip-path="url(#pc46b74f2dc)" style="fill: none; stroke: #658571; stroke-width: 1.6; stroke-linecap: square"/>
    <defs>
     <path id="m5bc510e4dd" d="M 0 2.4 
C 0.636487 2.4 1.246992 2.147121 1.697056 1.697056 
C 2.147121 1.246992 2.4 0.636487 2.4 0 
C 2.4 -0.636487 2.147121 -1.246992 1.697056 -1.697056 
C 1.246992 -2.147121 0.636487 -2.4 0 -2.4 
C -0.636487 -2.4 -1.246992 -2.147121 -1.697056 -1.697056 
C -2.147121 -1.246992 -2.4 -0.636487 -2.4 0 
C -2.4 0.636487 -2.147121 1.246992 -1.697056 1.697056 
C -1.246992 2.147121 -0.636487 2.4 0 2.4 
z
" style="stroke: #658571; stroke-width: 0.8"/>
    </defs>
    <g clip-path="url(#pc46b74f2dc)">
     <use xlink:href="#m5bc510e4dd" x="37.031746" y="169.166667" style="fill: #ffffff; stroke: #658571; stroke-width: 0.8"/>
     <use xlink:href="#m5bc510e4dd" x="45.095238" y="167.25" style="fill: #ffffff; stroke: #658571; stroke-width: 0.8"/>
     <use xlink:href="#m5bc510e4dd" x="57.190476" y="161.5" style="fill: #ffffff; stroke: #658571; stroke-width: 0.8"/>
     <use xlink:href="#m5bc510e4dd" x="81.380952" y="150" style="fill: #ffffff; stroke: #658571; stroke-width: 0.8"/>
     <use xlink:href="#m5bc510e4dd" x="153.952381" y="103.616667" style="fill: #ffffff; stroke: #658571; stroke-width: 0.8"/>
    </g>
   </g>
   <g id="line2d_23">
    <path d="M 37.031746 169.166667 
L 45.095238 167.25 
L 57.190476 161.5 
L 81.380952 150 
L 153.952381 103.616667 
" clip-path="url(#pc46b74f2dc)" style="fill: none; stroke-dasharray: 2.5,1.5; stroke-dashoffset: 0; stroke: #887299"/>
    <defs>
     <path id="m6716020141" d="M 0 1.979899 
L 1.979899 0 
L 0 -1.979899 
L -1.979899 0 
z
" style="stroke: #887299; stroke-width: 0.8; stroke-linejoin: miter"/>
    </defs>
    <g clip-path="url(#pc46b74f2dc)">
     <use xlink:href="#m6716020141" x="37.031746" y="169.166667" style="fill: #887299; stroke: #887299; stroke-width: 0.8; stroke-linejoin: miter"/>
     <use xlink:href="#m6716020141" x="45.095238" y="167.25" style="fill: #887299; stroke: #887299; stroke-width: 0.8; stroke-linejoin: miter"/>
     <use xlink:href="#m6716020141" x="57.190476" y="161.5" style="fill: #887299; stroke: #887299; stroke-width: 0.8; stroke-linejoin: miter"/>
     <use xlink:href="#m6716020141" x="81.380952" y="150" style="fill: #887299; stroke: #887299; stroke-width: 0.8; stroke-linejoin: miter"/>
     <use xlink:href="#m6716020141" x="153.952381" y="103.616667" style="fill: #887299; stroke: #887299; stroke-width: 0.8; stroke-linejoin: miter"/>
    </g>
   </g>
   <g id="line2d_24">
    <defs>
     <path id="md206e5aa6b" d="M 0 3.7 
C 0.981251 3.7 1.922446 3.310145 2.616295 2.616295 
C 3.310145 1.922446 3.7 0.981251 3.7 0 
C 3.7 -0.981251 3.310145 -1.922446 2.616295 -2.616295 
C 1.922446 -3.310145 0.981251 -3.7 0 -3.7 
C -0.981251 -3.7 -1.922446 -3.310145 -2.616295 -2.616295 
C -3.310145 -1.922446 -3.7 -0.981251 -3.7 0 
C -3.7 0.981251 -3.310145 1.922446 -2.616295 2.616295 
C -1.922446 3.310145 -0.981251 3.7 0 3.7 
z
" style="stroke: #ad6b6f; stroke-width: 0.85"/>
    </defs>
    <g clip-path="url(#pc46b74f2dc)">
     <use xlink:href="#md206e5aa6b" x="81.380952" y="150" style="fill-opacity: 0; stroke: #ad6b6f; stroke-width: 0.85"/>
    </g>
   </g>
  </g>
  <g id="b">
   <g id="patch_11">
    <path d="M 202 196 
L 329 196 
L 329 81 
L 202 81 
z
" style="fill: #ffffff"/>
   </g>
   <g id="patch_12">
    <path d="M 202 196 
L 329 196 
L 329 144.25 
L 202 144.25 
z
" clip-path="url(#pc206361d2e)" style="fill: #f1f4f0; stroke: #f1f4f0; stroke-linejoin: miter"/>
   </g>
   <g id="matplotlib.axis_3">
    <g id="xtick_5">
     <g id="line2d_25"/>
     <g id="text_12">
      <text style="font-size: 7px; font-family: 'Times New Roman'; text-anchor: middle; fill: #657078" x="207.686567" y="203.853516" transform="rotate(-0 207.686567 203.853516)">0</text>
     </g>
    </g>
    <g id="xtick_6">
     <g id="line2d_26"/>
     <g id="text_13">
      <text style="font-size: 7px; font-family: 'Times New Roman'; text-anchor: middle; fill: #657078" x="245.597015" y="203.853516" transform="rotate(-0 245.597015 203.853516)">20</text>
     </g>
    </g>
    <g id="xtick_7">
     <g id="line2d_27"/>
     <g id="text_14">
      <text style="font-size: 7px; font-family: 'Times New Roman'; text-anchor: middle; fill: #657078" x="283.507463" y="203.853516" transform="rotate(-0 283.507463 203.853516)">40</text>
     </g>
    </g>
    <g id="xtick_8">
     <g id="line2d_28"/>
     <g id="text_15">
      <text style="font-size: 7px; font-family: 'Times New Roman'; text-anchor: middle; fill: #657078" x="321.41791" y="203.853516" transform="rotate(-0 321.41791 203.853516)">60</text>
     </g>
    </g>
    <g id="text_16">
     <text style="font-size: 8px; font-family: 'Times New Roman'; text-anchor: middle; fill: #293038" x="265.5" y="215.919258" transform="rotate(-0 265.5 215.919258)">Wait (s)</text>
    </g>
   </g>
   <g id="matplotlib.axis_4">
    <g id="ytick_6">
     <g id="line2d_29">
      <path d="M 202 196 
L 329 196 
" clip-path="url(#pc206361d2e)" style="fill: none; stroke: #e5e2dc; stroke-width: 0.4; stroke-linecap: square"/>
     </g>
     <g id="line2d_30"/>
     <g id="text_17">
      <text style="font-size: 7px; font-family: 'Times New Roman'; text-anchor: end; fill: #657078" x="199" y="198.426758" transform="rotate(-0 199 198.426758)">0</text>
     </g>
    </g>
    <g id="ytick_7">
     <g id="line2d_31">
      <path d="M 202 167.25 
L 329 167.25 
" clip-path="url(#pc206361d2e)" style="fill: none; stroke: #e5e2dc; stroke-width: 0.4; stroke-linecap: square"/>
     </g>
     <g id="line2d_32"/>
     <g id="text_18">
      <text style="font-size: 7px; font-family: 'Times New Roman'; text-anchor: end; fill: #657078" x="199" y="169.676758" transform="rotate(-0 199 169.676758)">100</text>
     </g>
    </g>
    <g id="ytick_8">
     <g id="line2d_33">
      <path d="M 202 144.25 
L 329 144.25 
" clip-path="url(#pc206361d2e)" style="fill: none; stroke: #e5e2dc; stroke-width: 0.4; stroke-linecap: square"/>
     </g>
     <g id="line2d_34"/>
     <g id="text_19">
      <text style="font-size: 7px; font-family: 'Times New Roman'; text-anchor: end; fill: #657078" x="199" y="146.676758" transform="rotate(-0 199 146.676758)">180</text>
     </g>
    </g>
    <g id="ytick_9">
     <g id="line2d_35">
      <path d="M 202 109.75 
L 329 109.75 
" clip-path="url(#pc206361d2e)" style="fill: none; stroke: #e5e2dc; stroke-width: 0.4; stroke-linecap: square"/>
     </g>
     <g id="line2d_36"/>
     <g id="text_20">
      <text style="font-size: 7px; font-family: 'Times New Roman'; text-anchor: end; fill: #657078" x="199" y="112.176758" transform="rotate(-0 199 112.176758)">300</text>
     </g>
    </g>
    <g id="ytick_10">
     <g id="line2d_37">
      <path d="M 202 81 
L 329 81 
" clip-path="url(#pc206361d2e)" style="fill: none; stroke: #e5e2dc; stroke-width: 0.4; stroke-linecap: square"/>
     </g>
     <g id="line2d_38"/>
     <g id="text_21">
      <text style="font-size: 7px; font-family: 'Times New Roman'; text-anchor: end; fill: #657078" x="199" y="83.426758" transform="rotate(-0 199 83.426758)">400</text>
     </g>
    </g>
   </g>
   <g id="line2d_39">
    <path d="M 202 196 
L 329 196 
" clip-path="url(#pc206361d2e)" style="fill: none; stroke: #d0cec8; stroke-width: 0.6; stroke-linecap: square"/>
   </g>
   <g id="line2d_40">
    <path d="M 202 144.25 
L 329 144.25 
" clip-path="url(#pc206361d2e)" style="fill: none; stroke-dasharray: 2.25,1.5; stroke-dashoffset: 0; stroke: #ad6b6f; stroke-width: 0.75"/>
   </g>
   <g id="line2d_41">
    <path d="M 321.41791 196 
L 321.41791 81 
" clip-path="url(#pc206361d2e)" style="fill: none; stroke-dasharray: 1.4,1.4; stroke-dashoffset: 0; stroke: #c7b9ae; stroke-width: 0.7"/>
   </g>
   <g id="line2d_42">
    <path d="M 207.686567 143.675 
L 209.58209 143.3875 
L 217.164179 142.2375 
L 226.641791 140.8 
L 245.597015 137.925 
L 264.552239 135.05 
L 321.41791 126.425 
" clip-path="url(#pc206361d2e)" style="fill: none; stroke: #858b8d; stroke-linecap: square"/>
    <g clip-path="url(#pc206361d2e)">
     <use xlink:href="#me86497a306" x="207.686567" y="143.675" style="fill: #858b8d; stroke: #858b8d; stroke-width: 0.8; stroke-linejoin: miter"/>
     <use xlink:href="#me86497a306" x="209.58209" y="143.3875" style="fill: #858b8d; stroke: #858b8d; stroke-width: 0.8; stroke-linejoin: miter"/>
     <use xlink:href="#me86497a306" x="217.164179" y="142.2375" style="fill: #858b8d; stroke: #858b8d; stroke-width: 0.8; stroke-linejoin: miter"/>
     <use xlink:href="#me86497a306" x="226.641791" y="140.8" style="fill: #858b8d; stroke: #858b8d; stroke-width: 0.8; stroke-linejoin: miter"/>
     <use xlink:href="#me86497a306" x="245.597015" y="137.925" style="fill: #858b8d; stroke: #858b8d; stroke-width: 0.8; stroke-linejoin: miter"/>
     <use xlink:href="#me86497a306" x="264.552239" y="135.05" style="fill: #858b8d; stroke: #858b8d; stroke-width: 0.8; stroke-linejoin: miter"/>
     <use xlink:href="#me86497a306" x="321.41791" y="126.425" style="fill: #858b8d; stroke: #858b8d; stroke-width: 0.8; stroke-linejoin: miter"/>
    </g>
   </g>
   <g id="text_22">
    <text style="font-size: 7px; font-family: 'Times New Roman'; text-anchor: end; fill: #ad6b6f" x="312.41791" y="86.9625" transform="rotate(-0 312.41791 86.9625)">D60</text>
   </g>
   <g id="line2d_43">
    <path d="M 207.686567 161.5 
L 209.58209 161.2125 
L 217.164179 160.0625 
L 226.641791 158.625 
L 245.597015 155.75 
L 264.552239 152.875 
L 321.41791 97.9625 
" clip-path="url(#pc206361d2e)" style="fill: none; stroke: #ba8d58; stroke-linecap: square"/>
    <g clip-path="url(#pc206361d2e)">
     <use xlink:href="#m6f599b2ea3" x="207.686567" y="161.5" style="fill: #ffffff; stroke: #ba8d58; stroke-width: 0.8; stroke-linejoin: miter"/>
     <use xlink:href="#m6f599b2ea3" x="209.58209" y="161.2125" style="fill: #ffffff; stroke: #ba8d58; stroke-width: 0.8; stroke-linejoin: miter"/>
     <use xlink:href="#m6f599b2ea3" x="217.164179" y="160.0625" style="fill: #ffffff; stroke: #ba8d58; stroke-width: 0.8; stroke-linejoin: miter"/>
     <use xlink:href="#m6f599b2ea3" x="226.641791" y="158.625" style="fill: #ffffff; stroke: #ba8d58; stroke-width: 0.8; stroke-linejoin: miter"/>
     <use xlink:href="#m6f599b2ea3" x="245.597015" y="155.75" style="fill: #ffffff; stroke: #ba8d58; stroke-width: 0.8; stroke-linejoin: miter"/>
     <use xlink:href="#m6f599b2ea3" x="264.552239" y="152.875" style="fill: #ffffff; stroke: #ba8d58; stroke-width: 0.8; stroke-linejoin: miter"/>
     <use xlink:href="#m6f599b2ea3" x="321.41791" y="97.9625" style="fill: #ffffff; stroke: #ba8d58; stroke-width: 0.8; stroke-linejoin: miter"/>
    </g>
   </g>
   <g id="line2d_44">
    <path d="M 207.686567 161.5 
L 209.58209 161.2125 
L 217.164179 160.0625 
L 226.641791 158.625 
L 245.597015 155.75 
L 264.552239 152.875 
L 321.41791 109.175 
" clip-path="url(#pc206361d2e)" style="fill: none; stroke: #658571; stroke-width: 1.6; stroke-linecap: square"/>
    <g clip-path="url(#pc206361d2e)">
     <use xlink:href="#m5bc510e4dd" x="207.686567" y="161.5" style="fill: #ffffff; stroke: #658571; stroke-width: 0.8"/>
     <use xlink:href="#m5bc510e4dd" x="209.58209" y="161.2125" style="fill: #ffffff; stroke: #658571; stroke-width: 0.8"/>
     <use xlink:href="#m5bc510e4dd" x="217.164179" y="160.0625" style="fill: #ffffff; stroke: #658571; stroke-width: 0.8"/>
     <use xlink:href="#m5bc510e4dd" x="226.641791" y="158.625" style="fill: #ffffff; stroke: #658571; stroke-width: 0.8"/>
     <use xlink:href="#m5bc510e4dd" x="245.597015" y="155.75" style="fill: #ffffff; stroke: #658571; stroke-width: 0.8"/>
     <use xlink:href="#m5bc510e4dd" x="264.552239" y="152.875" style="fill: #ffffff; stroke: #658571; stroke-width: 0.8"/>
     <use xlink:href="#m5bc510e4dd" x="321.41791" y="109.175" style="fill: #ffffff; stroke: #658571; stroke-width: 0.8"/>
    </g>
   </g>
   <g id="line2d_45">
    <path d="M 207.686567 161.5 
L 209.58209 161.2125 
L 217.164179 160.0625 
L 226.641791 158.625 
L 245.597015 155.75 
L 264.552239 152.875 
L 321.41791 109.175 
" clip-path="url(#pc206361d2e)" style="fill: none; stroke-dasharray: 2.5,1.5; stroke-dashoffset: 0; stroke: #887299"/>
    <g clip-path="url(#pc206361d2e)">
     <use xlink:href="#m6716020141" x="207.686567" y="161.5" style="fill: #887299; stroke: #887299; stroke-width: 0.8; stroke-linejoin: miter"/>
     <use xlink:href="#m6716020141" x="209.58209" y="161.2125" style="fill: #887299; stroke: #887299; stroke-width: 0.8; stroke-linejoin: miter"/>
     <use xlink:href="#m6716020141" x="217.164179" y="160.0625" style="fill: #887299; stroke: #887299; stroke-width: 0.8; stroke-linejoin: miter"/>
     <use xlink:href="#m6716020141" x="226.641791" y="158.625" style="fill: #887299; stroke: #887299; stroke-width: 0.8; stroke-linejoin: miter"/>
     <use xlink:href="#m6716020141" x="245.597015" y="155.75" style="fill: #887299; stroke: #887299; stroke-width: 0.8; stroke-linejoin: miter"/>
     <use xlink:href="#m6716020141" x="264.552239" y="152.875" style="fill: #887299; stroke: #887299; stroke-width: 0.8; stroke-linejoin: miter"/>
     <use xlink:href="#m6716020141" x="321.41791" y="109.175" style="fill: #887299; stroke: #887299; stroke-width: 0.8; stroke-linejoin: miter"/>
    </g>
   </g>
  </g>
  <g id="c">
   <g id="patch_13">
    <path d="M 371 196 
L 498 196 
L 498 81 
L 371 81 
z
" style="fill: #ffffff"/>
   </g>
   <g id="matplotlib.axis_5">
    <g id="xtick_9">
     <g id="line2d_46"/>
     <g id="text_23">
      <text style="font-size: 7px; font-family: 'Times New Roman'; text-anchor: middle; fill: #657078" x="371" y="203.853516" transform="rotate(-0 371 203.853516)">0</text>
     </g>
    </g>
    <g id="xtick_10">
     <g id="line2d_47"/>
     <g id="text_24">
      <text style="font-size: 7px; font-family: 'Times New Roman'; text-anchor: middle; fill: #657078" x="394.962264" y="203.853516" transform="rotate(-0 394.962264 203.853516)">10</text>
     </g>
    </g>
    <g id="xtick_11">
     <g id="line2d_48"/>
     <g id="text_25">
      <text style="font-size: 7px; font-family: 'Times New Roman'; text-anchor: middle; fill: #657078" x="418.924528" y="203.853516" transform="rotate(-0 418.924528 203.853516)">20</text>
     </g>
    </g>
    <g id="xtick_12">
     <g id="line2d_49"/>
     <g id="text_26">
      <text style="font-size: 7px; font-family: 'Times New Roman'; text-anchor: middle; fill: #657078" x="442.886792" y="203.853516" transform="rotate(-0 442.886792 203.853516)">30</text>
     </g>
    </g>
    <g id="xtick_13">
     <g id="line2d_50"/>
     <g id="text_27">
      <text style="font-size: 7px; font-family: 'Times New Roman'; text-anchor: middle; fill: #657078" x="466.849057" y="203.853516" transform="rotate(-0 466.849057 203.853516)">40</text>
     </g>
    </g>
    <g id="xtick_14">
     <g id="line2d_51"/>
     <g id="text_28">
      <text style="font-size: 7px; font-family: 'Times New Roman'; text-anchor: middle; fill: #657078" x="490.811321" y="203.853516" transform="rotate(-0 490.811321 203.853516)">50</text>
     </g>
    </g>
    <g id="text_29">
     <text style="font-size: 8px; font-family: 'Times New Roman'; text-anchor: middle; fill: #293038" x="434.5" y="215.919258" transform="rotate(-0 434.5 215.919258)">Aircraft records</text>
    </g>
   </g>
   <g id="matplotlib.axis_6">
    <g id="ytick_11">
     <g id="line2d_52">
      <path d="M 371 196 
L 498 196 
" clip-path="url(#p4283757040)" style="fill: none; stroke: #e5e2dc; stroke-width: 0.4; stroke-linecap: square"/>
     </g>
     <g id="line2d_53"/>
     <g id="text_30">
      <text style="font-size: 7px; font-family: 'Times New Roman'; text-anchor: end; fill: #657078" x="368" y="198.426758" transform="rotate(-0 368 198.426758)">0</text>
     </g>
    </g>
    <g id="ytick_12">
     <g id="line2d_54">
      <path d="M 371 167.25 
L 498 167.25 
" clip-path="url(#p4283757040)" style="fill: none; stroke: #e5e2dc; stroke-width: 0.4; stroke-linecap: square"/>
     </g>
     <g id="line2d_55"/>
     <g id="text_31">
      <text style="font-size: 7px; font-family: 'Times New Roman'; text-anchor: end; fill: #657078" x="368" y="169.676758" transform="rotate(-0 368 169.676758)">6</text>
     </g>
    </g>
    <g id="ytick_13">
     <g id="line2d_56">
      <path d="M 371 138.5 
L 498 138.5 
" clip-path="url(#p4283757040)" style="fill: none; stroke: #e5e2dc; stroke-width: 0.4; stroke-linecap: square"/>
     </g>
     <g id="line2d_57"/>
     <g id="text_32">
      <text style="font-size: 7px; font-family: 'Times New Roman'; text-anchor: end; fill: #657078" x="368" y="140.926758" transform="rotate(-0 368 140.926758)">12</text>
     </g>
    </g>
    <g id="ytick_14">
     <g id="line2d_58">
      <path d="M 371 109.75 
L 498 109.75 
" clip-path="url(#p4283757040)" style="fill: none; stroke: #e5e2dc; stroke-width: 0.4; stroke-linecap: square"/>
     </g>
     <g id="line2d_59"/>
     <g id="text_33">
      <text style="font-size: 7px; font-family: 'Times New Roman'; text-anchor: end; fill: #657078" x="368" y="112.176758" transform="rotate(-0 368 112.176758)">18</text>
     </g>
    </g>
    <g id="ytick_15">
     <g id="line2d_60">
      <path d="M 371 81 
L 498 81 
" clip-path="url(#p4283757040)" style="fill: none; stroke: #e5e2dc; stroke-width: 0.4; stroke-linecap: square"/>
     </g>
     <g id="line2d_61"/>
     <g id="text_34">
      <text style="font-size: 7px; font-family: 'Times New Roman'; text-anchor: end; fill: #657078" x="368" y="83.426758" transform="rotate(-0 368 83.426758)">24</text>
     </g>
    </g>
   </g>
   <g id="line2d_62">
    <path d="M 371 196 
L 498 196 
" clip-path="url(#p4283757040)" style="fill: none; stroke: #d0cec8; stroke-width: 0.6; stroke-linecap: square"/>
   </g>
   <g id="line2d_63">
    <path d="M 382.981132 176.918999 
L 394.962264 167.630339 
L 418.924528 150.054026 
L 442.886792 132.478432 
L 490.811321 97.322932 
" clip-path="url(#p4283757040)" style="fill: none; stroke: #887299; stroke-width: 1.2; stroke-linecap: square"/>
    <defs>
     <path id="mf4bbc7e327" d="M 0 2.616295 
L 2.616295 0 
L 0 -2.616295 
L -2.616295 0 
z
" style="stroke: #887299; stroke-width: 0.6; stroke-linejoin: miter"/>
    </defs>
    <g clip-path="url(#p4283757040)">
     <use xlink:href="#mf4bbc7e327" x="382.981132" y="176.918999" style="fill: #887299; stroke: #887299; stroke-width: 0.6; stroke-linejoin: miter"/>
     <use xlink:href="#mf4bbc7e327" x="394.962264" y="167.630339" style="fill: #887299; stroke: #887299; stroke-width: 0.6; stroke-linejoin: miter"/>
     <use xlink:href="#mf4bbc7e327" x="418.924528" y="150.054026" style="fill: #887299; stroke: #887299; stroke-width: 0.6; stroke-linejoin: miter"/>
     <use xlink:href="#mf4bbc7e327" x="442.886792" y="132.478432" style="fill: #887299; stroke: #887299; stroke-width: 0.6; stroke-linejoin: miter"/>
     <use xlink:href="#mf4bbc7e327" x="490.811321" y="97.322932" style="fill: #887299; stroke: #887299; stroke-width: 0.6; stroke-linejoin: miter"/>
    </g>
   </g>
   <g id="text_35">
    <text style="font-size: 6.8px; font-family: 'Times New Roman'; text-anchor: start; fill: #887299" x="389.981132" y="183.918999" transform="rotate(-0 389.981132 183.918999)">3,982.1</text>
   </g>
   <g id="text_36">
    <text style="font-size: 6.8px; font-family: 'Times New Roman'; text-anchor: end; fill: #887299" x="489.811321" y="89.322932" transform="rotate(-0 489.811321 89.322932)">20,593.5</text>
   </g>
  </g>
  <g id="text_37">
   <text style="font-weight: 700; font-size: 9px; font-family: 'Times New Roman'; text-anchor: start; fill: #293038" x="11" y="53.076416" transform="rotate(-0 11 53.076416)">a</text>
  </g>
  <g id="text_38">
   <text style="font-weight: 700; font-size: 8.5px; font-family: 'Times New Roman'; text-anchor: start; fill: #293038" x="24" y="52.963467" transform="rotate(-0 24 52.963467)">Observation interval</text>
  </g>
  <g id="text_39">
   <text style="font-size: 7.3px; font-family: 'Times New Roman'; text-anchor: start; fill: #657078" x="11" y="72.746725" transform="rotate(-0 11 72.746725)">Completion duration (s)</text>
  </g>
  <g id="text_40">
   <text style="font-weight: 700; font-size: 7.2px; font-family: 'Times New Roman'; text-anchor: start; fill: #887299" x="12" y="234.663172" transform="rotate(-0 12 234.663172)">B2 = B4b at every setting</text>
  </g>
  <g id="text_41">
   <text style="font-size: 7.1px; font-family: 'Times New Roman'; text-anchor: start; fill: #657078" x="12" y="249.698869" transform="rotate(-0 12 249.698869)">OBS120 and OBS300: late</text>
  </g>
  <g id="text_42">
   <text style="font-weight: 700; font-size: 9px; font-family: 'Times New Roman'; text-anchor: start; fill: #293038" x="180" y="53.076416" transform="rotate(-0 180 53.076416)">b</text>
  </g>
  <g id="text_43">
   <text style="font-weight: 700; font-size: 8.5px; font-family: 'Times New Roman'; text-anchor: start; fill: #293038" x="193" y="52.963467" transform="rotate(-0 193 52.963467)">Execution wait</text>
  </g>
  <g id="text_44">
   <text style="font-size: 7.3px; font-family: 'Times New Roman'; text-anchor: start; fill: #657078" x="180" y="72.746725" transform="rotate(-0 180 72.746725)">Completion duration (s)</text>
  </g>
  <g id="text_45">
   <text style="font-weight: 700; font-size: 7.2px; font-family: 'Times New Roman'; text-anchor: start; fill: #887299" x="181" y="234.661133" transform="rotate(-0 181 234.661133)">0–30 s: B1 = B2 = B4b</text>
  </g>
  <g id="text_46">
   <text style="font-size: 7.1px; font-family: 'Times New Roman'; text-anchor: start; fill: #657078" x="181" y="249.698869" transform="rotate(-0 181 249.698869)">D60: pending command replaced</text>
  </g>
  <g id="text_47">
   <text style="font-weight: 700; font-size: 9px; font-family: 'Times New Roman'; text-anchor: start; fill: #293038" x="349" y="53.076416" transform="rotate(-0 349 53.076416)">c</text>
  </g>
  <g id="text_48">
   <text style="font-weight: 700; font-size: 8.5px; font-family: 'Times New Roman'; text-anchor: start; fill: #293038" x="362" y="52.96106" transform="rotate(-0 362 52.96106)">Input burden</text>
  </g>
  <g id="text_49">
   <text style="font-size: 7.3px; font-family: 'Times New Roman'; text-anchor: start; fill: #657078" x="349" y="72.746725" transform="rotate(-0 349 72.746725)">Tokens / call (×10³)</text>
  </g>
  <g id="text_50">
   <text style="font-weight: 700; font-size: 7.2px; font-family: 'Times New Roman'; text-anchor: start; fill: #887299" x="350" y="234.663172" transform="rotate(-0 350 234.663172)">Four active aircraft throughout</text>
  </g>
  <g id="text_51">
   <text style="font-size: 7.1px; font-family: 'Times New Roman'; text-anchor: start; fill: #657078" x="350" y="249.698869" transform="rotate(-0 350 249.698869)">All 100 B4b runs on time</text>
  </g>
  <g id="text_52">
   <text style="font-size: 7.2px; font-family: 'Times New Roman'; text-anchor: end; fill: #657078" x="500" y="278.722797" transform="rotate(-0 500 278.722797)">Site A · 20 runs per arm and policy</text>
  </g>
  <g id="text_53">
   <text style="font-size: 6.8px; font-family: 'Times New Roman'; text-anchor: middle; fill: #657078" x="255" y="293.627086" transform="rotate(-0 255 293.627086)">Lines connect tested settings; the highlighted settings do not establish a continuous threshold.</text>
  </g>
  <g id="legend_1">
   <g id="line2d_64">
    <path d="M 170.369531 17.190674 
L 177.119531 17.190674 
L 183.869531 17.190674 
" style="fill: none; stroke: #858b8d; stroke-width: 1.1; stroke-linecap: square"/>
    <defs>
     <path id="m373eb43bc7" d="M -1.7 1.7 
L 1.7 1.7 
L 1.7 -1.7 
L -1.7 -1.7 
z
" style="stroke: #858b8d; stroke-width: 0.7; stroke-linejoin: miter"/>
    </defs>
    <g>
     <use xlink:href="#m373eb43bc7" x="177.119531" y="17.190674" style="fill: #858b8d; stroke: #858b8d; stroke-width: 0.7; stroke-linejoin: miter"/>
    </g>
   </g>
   <g id="text_54">
    <text style="font-size: 7.5px; font-family: 'Times New Roman'; text-anchor: start; fill: #293038" x="188.369531" y="19.815674" transform="rotate(-0 188.369531 19.815674)">B0</text>
   </g>
   <g id="line2d_65">
    <path d="M 216.622266 17.190674 
L 223.372266 17.190674 
L 230.122266 17.190674 
" style="fill: none; stroke: #ba8d58; stroke-width: 1.1; stroke-linecap: square"/>
    <defs>
     <path id="mc62f8b8197" d="M 0 -2.9 
L -2.9 2.9 
L 2.9 2.9 
z
" style="stroke: #ba8d58; stroke-width: 0.7; stroke-linejoin: miter"/>
    </defs>
    <g>
     <use xlink:href="#mc62f8b8197" x="223.372266" y="17.190674" style="fill: #ffffff; stroke: #ba8d58; stroke-width: 0.7; stroke-linejoin: miter"/>
    </g>
   </g>
   <g id="text_55">
    <text style="font-size: 7.5px; font-family: 'Times New Roman'; text-anchor: start; fill: #293038" x="234.622266" y="19.815674" transform="rotate(-0 234.622266 19.815674)">B1</text>
   </g>
   <g id="line2d_66">
    <path d="M 262.875 17.190674 
L 269.625 17.190674 
L 276.375 17.190674 
" style="fill: none; stroke: #658571; stroke-width: 1.1; stroke-linecap: square"/>
    <defs>
     <path id="m0b6799f5ac" d="M 0 2.4 
C 0.636487 2.4 1.246992 2.147121 1.697056 1.697056 
C 2.147121 1.246992 2.4 0.636487 2.4 0 
C 2.4 -0.636487 2.147121 -1.246992 1.697056 -1.697056 
C 1.246992 -2.147121 0.636487 -2.4 0 -2.4 
C -0.636487 -2.4 -1.246992 -2.147121 -1.697056 -1.697056 
C -2.147121 -1.246992 -2.4 -0.636487 -2.4 0 
C -2.4 0.636487 -2.147121 1.246992 -1.697056 1.697056 
C -1.246992 2.147121 -0.636487 2.4 0 2.4 
z
" style="stroke: #658571; stroke-width: 0.7"/>
    </defs>
    <g>
     <use xlink:href="#m0b6799f5ac" x="269.625" y="17.190674" style="fill: #ffffff; stroke: #658571; stroke-width: 0.7"/>
    </g>
   </g>
   <g id="text_56">
    <text style="font-size: 7.5px; font-family: 'Times New Roman'; text-anchor: start; fill: #293038" x="280.875" y="19.815674" transform="rotate(-0 280.875 19.815674)">B2</text>
   </g>
   <g id="line2d_67">
    <path d="M 309.127734 17.190674 
L 315.877734 17.190674 
L 322.627734 17.190674 
" style="fill: none; stroke-dasharray: 2.75,1.65; stroke-dashoffset: 0; stroke: #887299; stroke-width: 1.1"/>
    <defs>
     <path id="m87a9b50451" d="M 0 2.404163 
L 2.404163 0 
L 0 -2.404163 
L -2.404163 0 
z
" style="stroke: #887299; stroke-width: 0.7; stroke-linejoin: miter"/>
    </defs>
    <g>
     <use xlink:href="#m87a9b50451" x="315.877734" y="17.190674" style="fill: #887299; stroke: #887299; stroke-width: 0.7; stroke-linejoin: miter"/>
    </g>
   </g>
   <g id="text_57">
    <text style="font-size: 7.5px; font-family: 'Times New Roman'; text-anchor: start; fill: #293038" x="327.127734" y="19.815674" transform="rotate(-0 327.127734 19.815674)">B4b</text>
   </g>
  </g>
  <g id="legend_2">
   <g id="line2d_68">
    <path d="M 82.909312 276.223047 
L 90.829313 276.223047 
L 98.749313 276.223047 
" style="fill: none; stroke-dasharray: 2.25,1.5; stroke-dashoffset: 0; stroke: #ad6b6f; stroke-width: 0.75"/>
   </g>
   <g id="text_58">
    <text style="font-size: 7.2px; font-family: 'Times New Roman'; text-anchor: start; fill: #293038" x="104.509312" y="278.743047" transform="rotate(-0 104.509312 278.743047)">180 s service window (a,b)</text>
   </g>
  </g>
 </g>
 <defs>
  <clipPath id="pc46b74f2dc">
   <rect x="33" y="81" width="127" height="115"/>
  </clipPath>
  <clipPath id="pc206361d2e">
   <rect x="202" y="81" width="127" height="115"/>
  </clipPath>
  <clipPath id="p4283757040">
   <rect x="371" y="81" width="127" height="115"/>
  </clipPath>
 </defs>
</svg>
